<?xml version="1.0" encoding="UTF-8" standalone="no"?><!DOCTYPE svg PUBLIC "-//W3C//DTD SVG 1.1//EN" "http://www.w3.org/Graphics/SVG/1.1/DTD/svg11.dtd"><svg width="100%" height="100%" viewBox="0 0 254 57" version="1.1" xmlns="http://www.w3.org/2000/svg" xmlns:xlink="http://www.w3.org/1999/xlink" xml:space="preserve" xmlns:serif="http://www.serif.com/" style="fill-rule:evenodd;clip-rule:evenodd;stroke-linejoin:round;stroke-miterlimit:2;"><path d="M71.083,7.38c0,-1.464 -0.429,-2.463 -1.464,-2.463c-0.856,0 -1.374,0.839 -1.374,2.267c0,1.517 0.535,2.427 1.374,2.427c0.929,0 1.464,-0.785 1.464,-2.231m1.41,7.104c0,-0.892 -0.606,-1.411 -2.106,-1.481c-0.518,-0.019 -1.303,0.018 -2.034,0.07c-0.519,0.215 -1.036,0.822 -1.036,1.554c0,1.124 1.088,1.892 2.606,1.892c1.517,0 2.57,-0.91 2.57,-2.035m-6.586,0.607c0,-1.018 1.088,-1.695 2.052,-2.07l0,-0.037c-1.053,-0.125 -1.803,-0.731 -1.803,-1.463c0,-0.892 0.965,-1.571 1.91,-1.821l0,-0.035c-0.875,-0.34 -1.606,-1.125 -1.606,-2.303c0,-1.535 1.356,-2.749 3.177,-2.749c0.84,0 1.552,0.25 2.124,0.608l2.339,-0.286l-0.125,0.999l-1.786,-0.267l-0.017,0.07c0.356,0.34 0.624,0.875 0.624,1.483c0,1.516 -1.374,2.694 -3.231,2.694c-0.375,0 -0.837,-0.053 -1.106,-0.106c-0.5,0.106 -0.928,0.428 -0.928,0.856c0,0.518 0.499,0.733 1.374,0.733c0.59,0 1.518,-0.055 2.16,-0.055c1.624,0 2.624,0.84 2.624,2.196c0,1.946 -1.892,3.446 -4.712,3.446c-1.946,0 -3.07,-0.698 -3.07,-1.893" style="fill-rule:nonzero;"/><path d="M79.31,11.04l0.106,-2.713c-2.123,0.5 -2.624,1.213 -2.624,2.07c0,0.768 0.554,1.286 1.162,1.286c0.499,0 0.91,-0.197 1.356,-0.643m0.053,0.339l-0.035,-0.018c-0.679,0.749 -1.411,1.41 -2.339,1.41c-1.053,0 -1.927,-0.803 -1.927,-1.821c0,-1.266 1.053,-2.141 4.354,-2.927l0.019,-0.463c0.035,-1.661 -0.661,-2.374 -1.768,-2.374c-0.625,0 -1.231,0.303 -1.231,0.463c0,0.125 0.482,0.5 0.482,1c0,0.447 -0.392,0.857 -0.963,0.857c-0.554,0 -0.964,-0.339 -0.964,-0.803c0,-1.035 2.213,-2.106 3.73,-2.106c1.873,0 2.606,0.714 2.498,3.016l-0.16,3.266c-0.036,0.607 0.196,0.892 0.571,0.892c0.285,0 0.535,-0.232 0.785,-0.463l0.161,0.161c-0.411,0.552 -1.088,1.32 -1.873,1.32c-0.769,0 -1.25,-0.482 -1.34,-1.41" style="fill-rule:nonzero;"/><path d="M83.271,12.289l0.339,-0.018c0.517,-0.035 0.678,-0.088 0.678,-0.303l0,-9.21c0,-0.857 -0.125,-0.999 -0.589,-1.124l-0.589,-0.215l0.035,-0.196l2.91,-0.786l0,11.567c0,0.16 0.125,0.214 0.803,0.267l0.304,0.018l0.053,0.286l-3.998,0l0.054,-0.286Z" style="fill-rule:nonzero;"/><path d="M93.516,7.255c0.018,-1.213 -0.375,-2.32 -1.356,-2.32c-0.912,0 -1.714,0.999 -1.911,2.339c0,0 3.285,-0.019 3.267,-0.019m-5.213,1.66c0,-2.445 1.732,-4.338 4.088,-4.338c1.856,0 2.945,1.108 2.945,2.553c0,0.161 -0.017,0.321 -0.053,0.5c0,0 -4.873,-0.054 -5.051,-0.054c-0.036,0.16 -0.054,0.518 -0.054,0.697c0.018,1.999 1.142,3.337 2.713,3.337c0.945,0 1.713,-0.338 2.32,-1.303l0.197,0.108c-0.75,1.534 -1.874,2.427 -3.445,2.427c-2.106,0 -3.66,-1.696 -3.66,-3.927" style="fill-rule:nonzero;"/><path d="M96.674,12.289l0.34,-0.018c0.517,-0.035 0.714,-0.088 0.714,-0.303l0,-4.837c0,-1.107 -0.143,-1.284 -0.75,-1.428l-0.41,-0.089l0.017,-0.215l2.927,-0.785l-0.035,2.66l0.053,0c0.607,-1.714 1.321,-2.677 2.392,-2.677c0.678,0 1.214,0.463 1.214,1.106c0,0.536 -0.393,1.053 -1.018,1.053c-0.552,0 -1.017,-0.375 -1.124,-0.999c-0.59,0.178 -1.071,0.91 -1.517,2.303l0,3.944c0,0.16 0.142,0.232 0.856,0.267l0.535,0.018l0.055,0.286l-4.302,0l0.053,-0.286Z" style="fill-rule:nonzero;"/><path d="M104.705,2.115c0,-0.535 0.374,-1.143 1.124,-1.143c0.768,0 1.143,0.608 1.143,1.143c0,0.518 -0.375,1.143 -1.143,1.143c-0.75,0 -1.124,-0.625 -1.124,-1.143m-0.661,10.174l0.34,-0.018c0.517,-0.035 0.714,-0.089 0.714,-0.303l0,-4.855c0,-1.089 -0.125,-1.267 -0.75,-1.41l-0.393,-0.089l0.018,-0.215l2.891,-0.785l0,7.39c0,0.16 0.108,0.214 0.84,0.267l0.285,0.018l0.053,0.286l-4.051,0l0.053,-0.286Z" style="fill-rule:nonzero;"/><path d="M113.467,11.04l0.107,-2.713c-2.124,0.5 -2.624,1.213 -2.624,2.07c0,0.768 0.553,1.286 1.161,1.286c0.5,0 0.91,-0.197 1.356,-0.643m0.054,0.339l-0.036,-0.018c-0.678,0.749 -1.411,1.41 -2.338,1.41c-1.054,0 -1.928,-0.803 -1.928,-1.821c0,-1.266 1.053,-2.141 4.355,-2.927l0.018,-0.463c0.036,-1.661 -0.66,-2.374 -1.767,-2.374c-0.625,0 -1.231,0.303 -1.231,0.463c0,0.125 0.481,0.5 0.481,1c0,0.447 -0.392,0.857 -0.963,0.857c-0.554,0 -0.964,-0.339 -0.964,-0.803c0,-1.035 2.213,-2.106 3.73,-2.106c1.874,0 2.606,0.714 2.499,3.016l-0.161,3.266c-0.035,0.607 0.196,0.892 0.571,0.892c0.285,0 0.536,-0.232 0.786,-0.463l0.161,0.161c-0.411,0.552 -1.089,1.32 -1.874,1.32c-0.768,0 -1.25,-0.482 -1.339,-1.41" style="fill-rule:nonzero;"/><path d="M127.102,10.878l0,-4.266c-0.446,-0.875 -1.249,-1.552 -2.053,-1.552c-1.249,0 -1.963,1.481 -1.963,3.374c0,1.838 0.892,3.248 2.285,3.248c0.75,0 1.285,-0.358 1.731,-0.804m0,0.446l-0.054,-0.017c-0.696,0.856 -1.624,1.5 -2.695,1.5c-1.803,0 -3.213,-1.607 -3.213,-3.821c0,-2.748 2.107,-4.301 4.231,-4.301c0.661,0 1.213,0.089 1.696,0.303c0,0 0.035,-0.018 0.035,0l0,-2.73c0,-0.519 -0.125,-0.696 -0.589,-0.785l-0.75,-0.197l0.036,-0.197l3.052,-0.642l0,10.835c0,0.481 0.089,0.588 0.34,0.66l0.856,0.196l-0.017,0.214l-2.928,0.517l0,-1.535Z" style="fill-rule:nonzero;"/><path d="M135.222,11.04l0.106,-2.713c-2.123,0.5 -2.624,1.213 -2.624,2.07c0,0.768 0.554,1.286 1.162,1.286c0.499,0 0.91,-0.197 1.356,-0.643m0.053,0.339l-0.035,-0.018c-0.678,0.749 -1.411,1.41 -2.338,1.41c-1.054,0 -1.928,-0.803 -1.928,-1.821c0,-1.266 1.053,-2.141 4.354,-2.927l0.019,-0.463c0.035,-1.661 -0.661,-2.374 -1.768,-2.374c-0.625,0 -1.231,0.303 -1.231,0.463c0,0.125 0.482,0.5 0.482,1c0,0.447 -0.392,0.857 -0.963,0.857c-0.554,0 -0.965,-0.339 -0.965,-0.803c0,-1.035 2.214,-2.106 3.731,-2.106c1.873,0 2.606,0.714 2.498,3.016l-0.16,3.266c-0.036,0.607 0.196,0.892 0.571,0.892c0.285,0 0.535,-0.232 0.785,-0.463l0.161,0.161c-0.411,0.552 -1.088,1.32 -1.874,1.32c-0.768,0 -1.249,-0.482 -1.339,-1.41" style="fill-rule:nonzero;"/><path d="M149.232,9.041c0,-1.82 -0.875,-3.194 -2.25,-3.194c-0.749,0 -1.356,0.374 -1.784,0.838l0,4.176c0.464,0.875 1.267,1.589 2.088,1.589c1.196,0 1.946,-1.5 1.946,-3.409m-5.783,-6.622c0,-0.518 -0.108,-0.66 -0.589,-0.804l-0.59,-0.214l0.019,-0.196l2.909,-0.785l0,5.765l0.071,0.018c0.732,-0.857 1.643,-1.517 2.713,-1.517c1.839,0 3.195,1.606 3.195,3.784c0,2.749 -2.106,4.355 -4.213,4.355c-0.749,0 -1.659,-0.25 -2.266,-0.5l-0.018,0l-1.071,0.625l-0.16,0l0,-10.531Z" style="fill-rule:nonzero;"/><path d="M153.087,2.115c0,-0.535 0.374,-1.143 1.124,-1.143c0.768,0 1.143,0.608 1.143,1.143c0,0.518 -0.375,1.143 -1.143,1.143c-0.75,0 -1.124,-0.625 -1.124,-1.143m-0.661,10.174l0.34,-0.018c0.517,-0.035 0.714,-0.089 0.714,-0.303l0,-4.855c0,-1.089 -0.125,-1.267 -0.75,-1.41l-0.393,-0.089l0.018,-0.215l2.891,-0.785l0,7.39c0,0.16 0.108,0.214 0.839,0.267l0.286,0.018l0.053,0.286l-4.051,0l0.053,-0.286Z" style="fill-rule:nonzero;"/><path d="M163.866,8.933c0,-1.57 -0.321,-2.838 -0.929,-3.462c-0.285,-0.286 -0.677,-0.536 -1.266,-0.536c-1.393,0 -2.143,1.606 -2.143,3.517c0,1.606 0.286,2.837 0.91,3.48c0.304,0.321 0.715,0.553 1.286,0.553c1.321,0 2.142,-1.588 2.142,-3.552m-6.354,-0.196c0,-2.302 1.802,-4.141 4.248,-4.141c2.481,0 4.123,1.784 4.123,4.016c0,2.356 -1.767,4.213 -4.248,4.213c-2.499,0 -4.123,-1.821 -4.123,-4.088" style="fill-rule:nonzero;"/><path d="M173.111,10.878l0,-4.266c-0.446,-0.875 -1.25,-1.552 -2.054,-1.552c-1.249,0 -1.963,1.481 -1.963,3.374c0,1.838 0.893,3.248 2.286,3.248c0.75,0 1.285,-0.358 1.731,-0.804m0,0.446l-0.054,-0.017c-0.696,0.856 -1.625,1.5 -2.695,1.5c-1.803,0 -3.213,-1.607 -3.213,-3.821c0,-2.748 2.106,-4.301 4.231,-4.301c0.66,0 1.212,0.089 1.695,0.303c0,0 0.036,-0.018 0.036,0l0,-2.73c0,-0.519 -0.125,-0.696 -0.589,-0.785l-0.75,-0.197l0.035,-0.197l3.053,-0.642l0,10.835c0,0.481 0.089,0.588 0.339,0.66l0.856,0.196l-0.017,0.214l-2.927,0.517l0,-1.535Z" style="fill-rule:nonzero;"/><path d="M177.536,2.115c0,-0.535 0.375,-1.143 1.124,-1.143c0.768,0 1.143,0.608 1.143,1.143c0,0.518 -0.375,1.143 -1.143,1.143c-0.749,0 -1.124,-0.625 -1.124,-1.143m-0.66,10.174l0.339,-0.018c0.517,-0.035 0.714,-0.089 0.714,-0.303l0,-4.855c0,-1.089 -0.125,-1.267 -0.75,-1.41l-0.393,-0.089l0.018,-0.215l2.892,-0.785l0,7.39c0,0.16 0.107,0.214 0.839,0.267l0.285,0.018l0.054,0.286l-4.052,0l0.054,-0.286Z" style="fill-rule:nonzero;"/><path d="M182.711,6.113c-0.32,-0.731 -0.41,-0.874 -0.945,-0.928l-0.357,-0.053l-0.053,-0.286l4.211,0l-0.035,0.286l-0.393,0.053c-0.589,0.036 -0.714,0.25 -0.482,0.803l1.857,4.642l1.355,-3.606c0.554,-1.464 0.411,-1.731 -0.589,-1.839l-0.338,-0.053l-0.054,-0.286l3.177,0l-0.053,0.286l-0.322,0.035c-0.731,0.09 -0.803,0.322 -1.463,1.964l-2.161,5.623l-0.588,0l-2.767,-6.641Z" style="fill-rule:nonzero;"/><path d="M196.043,7.255c0.018,-1.213 -0.375,-2.32 -1.356,-2.32c-0.912,0 -1.714,0.999 -1.911,2.339c0,0 3.285,-0.019 3.267,-0.019m-5.212,1.66c0,-2.445 1.732,-4.338 4.087,-4.338c1.856,0 2.945,1.108 2.945,2.553c0,0.161 -0.017,0.321 -0.053,0.5c0,0 -4.873,-0.054 -5.051,-0.054c-0.036,0.16 -0.054,0.518 -0.054,0.697c0.018,1.999 1.143,3.337 2.713,3.337c0.946,0 1.714,-0.338 2.32,-1.303l0.197,0.108c-0.749,1.534 -1.874,2.427 -3.445,2.427c-2.106,0 -3.659,-1.696 -3.659,-3.927" style="fill-rule:nonzero;"/><path d="M199.201,12.289l0.34,-0.018c0.516,-0.035 0.713,-0.088 0.713,-0.303l0,-4.837c0,-1.107 -0.142,-1.284 -0.749,-1.428l-0.41,-0.089l0.017,-0.215l2.927,-0.785l-0.035,2.66l0.052,0c0.608,-1.714 1.322,-2.677 2.393,-2.677c0.678,0 1.214,0.463 1.214,1.106c0,0.536 -0.393,1.053 -1.018,1.053c-0.553,0 -1.017,-0.375 -1.124,-0.999c-0.59,0.178 -1.071,0.91 -1.517,2.303l0,3.944c0,0.16 0.142,0.232 0.856,0.267l0.535,0.018l0.054,0.286l-4.301,0l0.053,-0.286Z" style="fill-rule:nonzero;"/><path d="M206.821,12.396l-0.125,-2.267l0.394,-0.018l0.41,1.035c0.464,0.821 1.088,1.339 1.945,1.339c0.928,0 1.606,-0.589 1.606,-1.428c0,-0.856 -0.838,-1.285 -1.91,-1.678c-1.195,-0.446 -2.284,-0.963 -2.284,-2.409c0,-1.392 1.142,-2.374 2.82,-2.374c0.678,0 1.267,0.125 1.713,0.304l0.643,-0.196l0.089,2.32l-0.357,0.018l-0.927,-1.661c-0.287,-0.214 -0.715,-0.446 -1.214,-0.446c-0.875,0 -1.375,0.518 -1.375,1.249c0,0.858 0.714,1.16 1.839,1.589c1.249,0.482 2.391,1 2.391,2.499c0,1.321 -1.089,2.553 -3.159,2.553c-0.981,0 -1.838,-0.179 -2.499,-0.429" style="fill-rule:nonzero;"/><path d="M214.495,2.115c0,-0.535 0.375,-1.143 1.125,-1.143c0.767,0 1.142,0.608 1.142,1.143c0,0.518 -0.375,1.143 -1.142,1.143c-0.75,0 -1.125,-0.625 -1.125,-1.143m-0.66,10.174l0.339,-0.018c0.517,-0.035 0.714,-0.089 0.714,-0.303l0,-4.855c0,-1.089 -0.125,-1.267 -0.75,-1.41l-0.393,-0.089l0.018,-0.215l2.892,-0.785l0,7.39c0,0.16 0.107,0.214 0.839,0.267l0.285,0.018l0.054,0.286l-4.052,0l0.054,-0.286Z" style="fill-rule:nonzero;"/><path d="M224.882,10.878l0,-4.266c-0.446,-0.875 -1.25,-1.552 -2.054,-1.552c-1.249,0 -1.963,1.481 -1.963,3.374c0,1.838 0.893,3.248 2.286,3.248c0.75,0 1.285,-0.358 1.731,-0.804m0,0.446l-0.054,-0.017c-0.696,0.856 -1.625,1.5 -2.695,1.5c-1.803,0 -3.213,-1.607 -3.213,-3.821c0,-2.748 2.106,-4.301 4.231,-4.301c0.66,0 1.212,0.089 1.695,0.303c0,0 0.036,-0.018 0.036,0l0,-2.73c0,-0.519 -0.125,-0.696 -0.589,-0.785l-0.75,-0.197l0.035,-0.197l3.053,-0.642l0,10.835c0,0.481 0.089,0.588 0.339,0.66l0.856,0.196l-0.017,0.214l-2.927,0.517l0,-1.535Z" style="fill-rule:nonzero;"/><path d="M233.002,11.04l0.107,-2.713c-2.124,0.5 -2.624,1.213 -2.624,2.07c0,0.768 0.554,1.286 1.161,1.286c0.5,0 0.91,-0.197 1.356,-0.643m0.054,0.339l-0.035,-0.018c-0.679,0.749 -1.411,1.41 -2.339,1.41c-1.053,0 -1.928,-0.803 -1.928,-1.821c0,-1.266 1.054,-2.141 4.355,-2.927l0.018,-0.463c0.036,-1.661 -0.66,-2.374 -1.767,-2.374c-0.625,0 -1.231,0.303 -1.231,0.463c0,0.125 0.481,0.5 0.481,1c0,0.447 -0.392,0.857 -0.963,0.857c-0.553,0 -0.963,-0.339 -0.963,-0.803c0,-1.035 2.213,-2.106 3.729,-2.106c1.874,0 2.607,0.714 2.499,3.016l-0.161,3.266c-0.035,0.607 0.196,0.892 0.571,0.892c0.286,0 0.536,-0.232 0.786,-0.463l0.161,0.161c-0.411,0.552 -1.089,1.32 -1.874,1.32c-0.768,0 -1.25,-0.482 -1.339,-1.41" style="fill-rule:nonzero;"/><path d="M242.978,10.878l0,-4.266c-0.446,-0.875 -1.249,-1.552 -2.053,-1.552c-1.249,0 -1.963,1.481 -1.963,3.374c0,1.838 0.893,3.248 2.286,3.248c0.749,0 1.284,-0.358 1.73,-0.804m0,0.446l-0.054,-0.017c-0.695,0.856 -1.624,1.5 -2.694,1.5c-1.804,0 -3.214,-1.607 -3.214,-3.821c0,-2.748 2.107,-4.301 4.232,-4.301c0.66,0 1.212,0.089 1.695,0.303c0,0 0.035,-0.018 0.035,0l0,-2.73c0,-0.519 -0.124,-0.696 -0.589,-0.785l-0.749,-0.197l0.035,-0.197l3.052,-0.642l0,10.835c0,0.481 0.09,0.588 0.34,0.66l0.856,0.196l-0.017,0.214l-2.928,0.517l0,-1.535Z" style="fill-rule:nonzero;"/><path d="M251.973,7.255c0.018,-1.213 -0.375,-2.32 -1.356,-2.32c-0.912,0 -1.714,0.999 -1.911,2.339c0,0 3.285,-0.019 3.267,-0.019m-5.213,1.66c0,-2.445 1.733,-4.338 4.088,-4.338c1.856,0 2.945,1.108 2.945,2.553c0,0.161 -0.017,0.321 -0.053,0.5c0,0 -4.873,-0.054 -5.051,-0.054c-0.036,0.16 -0.054,0.518 -0.054,0.697c0.018,1.999 1.142,3.337 2.713,3.337c0.945,0 1.714,-0.338 2.32,-1.303l0.197,0.108c-0.75,1.534 -1.874,2.427 -3.445,2.427c-2.106,0 -3.66,-1.696 -3.66,-3.927" style="fill-rule:nonzero;"/><path d="M66.138,29.702c0,-2.445 1.75,-4.338 4.177,-4.338c1.552,0 2.731,0.697 2.731,1.714c0,0.607 -0.482,1 -1,1c-0.625,0 -1.071,-0.554 -1,-1.178c0,-0.393 0.269,-0.625 0.269,-0.732c-0.054,-0.214 -0.536,-0.464 -1,-0.464c-1.285,0 -2.285,1.285 -2.285,3.284c0,2.07 1.125,3.392 2.695,3.392c0.929,0 1.642,-0.339 2.249,-1.304l0.196,0.107c-0.749,1.536 -1.838,2.428 -3.39,2.428c-2.089,0 -3.642,-1.679 -3.642,-3.909" style="fill-rule:nonzero;"/><path d="M79.453,28.024c0.018,-1.214 -0.375,-2.32 -1.356,-2.32c-0.912,0 -1.714,0.999 -1.911,2.338c0,0 3.285,-0.018 3.267,-0.018m-5.212,1.66c0,-2.445 1.732,-4.338 4.087,-4.338c1.856,0 2.945,1.108 2.945,2.553c0,0.161 -0.017,0.321 -0.053,0.5c0,0 -4.873,-0.054 -5.051,-0.054c-0.036,0.16 -0.054,0.518 -0.054,0.697c0.018,1.999 1.143,3.337 2.713,3.337c0.945,0 1.714,-0.338 2.32,-1.303l0.197,0.107c-0.75,1.535 -1.874,2.428 -3.445,2.428c-2.106,0 -3.659,-1.696 -3.659,-3.927" style="fill-rule:nonzero;"/><path d="M82.61,33.057l0.34,-0.018c0.517,-0.036 0.714,-0.089 0.714,-0.303l0,-4.837c0,-1.107 -0.143,-1.285 -0.75,-1.428l-0.41,-0.09l0.017,-0.214l2.928,-0.785l-0.036,1.464l0.036,0c0.803,-0.661 1.838,-1.482 2.998,-1.482c0.571,0 1.071,0.178 1.428,0.553c0.428,0.429 0.589,1.125 0.589,1.928l0,4.908c0,0.125 0.053,0.215 0.875,0.286l0.268,0.018l0.053,0.285l-4.016,0l0.054,-0.285l0.339,-0.018c0.606,-0.036 0.66,-0.142 0.66,-0.303l0,-4.408c0,-1.286 -0.518,-1.732 -1.535,-1.732c-0.732,0 -1.321,0.304 -1.749,0.643l0,5.533c0,0.16 0.107,0.214 0.803,0.267l0.339,0.018l0.035,0.285l-4.033,0l0.053,-0.285Z" style="fill-rule:nonzero;"/><path d="M93.568,31.379l0.09,-4.837l-1.428,-0.054l0.16,-0.446l1.124,-0.856l1.643,-1.321l0.267,0.053l-0.017,1.714l2.749,0l-0.251,0.839l-2.498,0l-0.108,4.64c-0.017,0.982 0.429,1.428 1.339,1.428c0.589,0 1.089,-0.214 1.482,-0.517l0.089,0.178c-0.732,0.768 -1.642,1.374 -2.606,1.374c-1.321,0 -2.053,-0.677 -2.035,-2.195" style="fill-rule:nonzero;"/><path d="M99.154,33.057l0.34,-0.018c0.516,-0.036 0.714,-0.089 0.714,-0.303l0,-4.837c0,-1.107 -0.143,-1.285 -0.75,-1.428l-0.41,-0.09l0.017,-0.214l2.927,-0.785l-0.035,2.659l0.053,0c0.607,-1.713 1.321,-2.677 2.392,-2.677c0.678,0 1.214,0.464 1.214,1.107c0,0.535 -0.393,1.053 -1.018,1.053c-0.553,0 -1.017,-0.375 -1.125,-0.999c-0.589,0.178 -1.07,0.91 -1.516,2.303l0,3.944c0,0.16 0.142,0.231 0.856,0.267l0.535,0.018l0.054,0.285l-4.301,0l0.053,-0.285Z" style="fill-rule:nonzero;"/><path d="M112.896,29.702c0,-1.571 -0.32,-2.838 -0.928,-3.463c-0.286,-0.285 -0.678,-0.535 -1.267,-0.535c-1.393,0 -2.142,1.606 -2.142,3.517c0,1.606 0.285,2.837 0.91,3.479c0.304,0.322 0.714,0.554 1.285,0.554c1.321,0 2.142,-1.588 2.142,-3.552m-6.354,-0.196c0,-2.303 1.802,-4.142 4.249,-4.142c2.48,0 4.122,1.785 4.122,4.017c0,2.355 -1.767,4.213 -4.247,4.213c-2.499,0 -4.124,-1.822 -4.124,-4.088" style="fill-rule:nonzero;"/><path d="M119.838,29.702c0,-2.445 1.75,-4.338 4.177,-4.338c1.553,0 2.731,0.697 2.731,1.714c0,0.607 -0.482,1 -1,1c-0.624,0 -1.07,-0.554 -0.999,-1.178c0,-0.393 0.268,-0.625 0.268,-0.732c-0.054,-0.214 -0.535,-0.464 -1,-0.464c-1.284,0 -2.284,1.285 -2.284,3.284c0,2.07 1.124,3.392 2.695,3.392c0.928,0 1.641,-0.339 2.249,-1.304l0.196,0.107c-0.75,1.536 -1.839,2.428 -3.391,2.428c-2.088,0 -3.642,-1.679 -3.642,-3.909" style="fill-rule:nonzero;"/><path d="M128.583,22.883c0,-0.535 0.375,-1.143 1.125,-1.143c0.768,0 1.142,0.608 1.142,1.143c0,0.518 -0.374,1.143 -1.142,1.143c-0.75,0 -1.125,-0.625 -1.125,-1.143m-0.66,10.174l0.339,-0.018c0.517,-0.036 0.714,-0.09 0.714,-0.303l0,-4.855c0,-1.089 -0.125,-1.268 -0.75,-1.41l-0.393,-0.09l0.019,-0.214l2.891,-0.785l0,7.39c0,0.16 0.107,0.214 0.839,0.267l0.285,0.018l0.054,0.285l-4.052,0l0.054,-0.285Z" style="fill-rule:nonzero;"/><path d="M138.22,28.024c0.018,-1.214 -0.375,-2.32 -1.356,-2.32c-0.911,0 -1.713,0.999 -1.91,2.338c0,0 3.284,-0.018 3.266,-0.018m-1.57,-6.907l0.303,0l2.41,3.479l-0.25,0l-2.286,-1.855l-0.035,0l-2.32,1.855l-0.232,0l2.41,-3.479Zm-3.642,8.567c0,-2.445 1.732,-4.338 4.088,-4.338c1.856,0 2.944,1.108 2.944,2.553c0,0.161 -0.017,0.321 -0.052,0.5c0,0 -4.873,-0.054 -5.052,-0.054c-0.036,0.16 -0.054,0.518 -0.054,0.697c0.018,1.999 1.143,3.337 2.713,3.337c0.946,0 1.714,-0.338 2.321,-1.303l0.197,0.107c-0.75,1.535 -1.875,2.428 -3.446,2.428c-2.105,0 -3.659,-1.696 -3.659,-3.927" style="fill-rule:nonzero;"/><path d="M141.379,33.057l0.339,-0.018c0.517,-0.036 0.714,-0.089 0.714,-0.303l0,-4.837c0,-1.107 -0.143,-1.285 -0.75,-1.428l-0.41,-0.09l0.017,-0.214l2.928,-0.785l-0.035,1.464l0.035,0c0.803,-0.661 1.838,-1.482 2.998,-1.482c0.571,0 1.071,0.178 1.429,0.553c0.427,0.429 0.589,1.125 0.589,1.928l0,4.908c0,0.125 0.053,0.215 0.875,0.286l0.267,0.018l0.053,0.285l-4.016,0l0.054,-0.285l0.339,-0.018c0.607,-0.036 0.66,-0.142 0.66,-0.303l0,-4.408c0,-1.286 -0.517,-1.732 -1.534,-1.732c-0.733,0 -1.322,0.304 -1.749,0.643l0,5.533c0,0.16 0.106,0.214 0.802,0.267l0.339,0.018l0.036,0.285l-4.034,0l0.054,-0.285Z" style="fill-rule:nonzero;"/><path d="M151.354,29.702c0,-2.445 1.75,-4.338 4.177,-4.338c1.552,0 2.731,0.697 2.731,1.714c0,0.607 -0.482,1 -1,1c-0.624,0 -1.071,-0.554 -0.999,-1.178c0,-0.393 0.268,-0.625 0.268,-0.732c-0.054,-0.214 -0.536,-0.464 -1,-0.464c-1.285,0 -2.284,1.285 -2.284,3.284c0,2.07 1.124,3.392 2.694,3.392c0.929,0 1.642,-0.339 2.249,-1.304l0.196,0.107c-0.749,1.536 -1.838,2.428 -3.39,2.428c-2.088,0 -3.642,-1.679 -3.642,-3.909" style="fill-rule:nonzero;"/><path d="M160.099,22.883c0,-0.535 0.375,-1.143 1.124,-1.143c0.768,0 1.143,0.608 1.143,1.143c0,0.518 -0.375,1.143 -1.143,1.143c-0.749,0 -1.124,-0.625 -1.124,-1.143m-0.66,10.174l0.339,-0.018c0.517,-0.036 0.714,-0.09 0.714,-0.303l0,-4.855c0,-1.089 -0.125,-1.268 -0.75,-1.41l-0.393,-0.09l0.018,-0.214l2.892,-0.785l0,7.39c0,0.16 0.107,0.214 0.839,0.267l0.285,0.018l0.054,0.285l-4.052,0l0.054,-0.285Z" style="fill-rule:nonzero;"/><path d="M168.862,31.808l0.107,-2.713c-2.124,0.499 -2.624,1.213 -2.624,2.07c0,0.767 0.554,1.286 1.161,1.286c0.5,0 0.91,-0.197 1.356,-0.643m0.054,0.339l-0.035,-0.019c-0.679,0.75 -1.411,1.41 -2.339,1.41c-1.053,0 -1.928,-0.802 -1.928,-1.82c0,-1.266 1.054,-2.141 4.355,-2.927l0.018,-0.463c0.036,-1.661 -0.66,-2.374 -1.767,-2.374c-0.625,0 -1.231,0.303 -1.231,0.463c0,0.125 0.481,0.5 0.481,0.999c0,0.448 -0.392,0.858 -0.963,0.858c-0.553,0 -0.963,-0.34 -0.963,-0.803c0,-1.036 2.213,-2.107 3.729,-2.107c1.874,0 2.607,0.715 2.499,3.016l-0.161,3.267c-0.035,0.607 0.196,0.892 0.571,0.892c0.286,0 0.536,-0.232 0.786,-0.463l0.161,0.161c-0.411,0.552 -1.089,1.32 -1.874,1.32c-0.768,0 -1.25,-0.482 -1.339,-1.41" style="fill-rule:nonzero;"/><path d="M177.285,26.881c-0.321,-0.731 -0.41,-0.875 -0.946,-0.928l-0.357,-0.053l-0.053,-0.287l4.212,0l-0.036,0.287l-0.392,0.053c-0.589,0.035 -0.714,0.249 -0.482,0.803l1.856,4.641l1.356,-3.606c0.554,-1.463 0.411,-1.73 -0.589,-1.838l-0.339,-0.053l-0.053,-0.287l3.177,0l-0.053,0.287l-0.322,0.035c-0.732,0.09 -0.803,0.322 -1.463,1.964l-2.161,5.622l-0.588,0l-2.767,-6.64Z" style="fill-rule:nonzero;"/><path d="M186.048,22.883c0,-0.535 0.375,-1.143 1.125,-1.143c0.768,0 1.142,0.608 1.142,1.143c0,0.518 -0.374,1.143 -1.142,1.143c-0.75,0 -1.125,-0.625 -1.125,-1.143m-0.66,10.174l0.339,-0.018c0.517,-0.036 0.714,-0.09 0.714,-0.303l0,-4.855c0,-1.089 -0.125,-1.268 -0.75,-1.41l-0.393,-0.09l0.019,-0.214l2.891,-0.785l0,7.39c0,0.16 0.107,0.214 0.839,0.267l0.285,0.018l0.054,0.285l-4.052,0l0.054,-0.285Z" style="fill-rule:nonzero;"/><path d="M191.223,26.881c-0.321,-0.731 -0.411,-0.875 -0.946,-0.928l-0.357,-0.053l-0.053,-0.287l4.211,0l-0.035,0.287l-0.392,0.053c-0.59,0.035 -0.715,0.249 -0.483,0.803l1.857,4.641l1.356,-3.606c0.553,-1.463 0.41,-1.73 -0.589,-1.838l-0.339,-0.053l-0.053,-0.287l3.177,0l-0.054,0.287l-0.321,0.035c-0.732,0.09 -0.803,0.322 -1.464,1.964l-2.16,5.622l-0.588,0l-2.767,-6.64Z" style="fill-rule:nonzero;"/><path d="M203.68,31.808l0.107,-2.713c-2.124,0.499 -2.624,1.213 -2.624,2.07c0,0.767 0.553,1.286 1.161,1.286c0.5,0 0.91,-0.197 1.356,-0.643m0.054,0.339l-0.036,-0.019c-0.678,0.75 -1.411,1.41 -2.338,1.41c-1.054,0 -1.928,-0.802 -1.928,-1.82c0,-1.266 1.053,-2.141 4.355,-2.927l0.018,-0.463c0.036,-1.661 -0.66,-2.374 -1.767,-2.374c-0.625,0 -1.231,0.303 -1.231,0.463c0,0.125 0.481,0.5 0.481,0.999c0,0.448 -0.392,0.858 -0.963,0.858c-0.554,0 -0.964,-0.34 -0.964,-0.803c0,-1.036 2.213,-2.107 3.73,-2.107c1.874,0 2.606,0.715 2.499,3.016l-0.161,3.267c-0.035,0.607 0.196,0.892 0.571,0.892c0.285,0 0.535,-0.232 0.785,-0.463l0.162,0.161c-0.412,0.552 -1.089,1.32 -1.875,1.32c-0.768,0 -1.249,-0.482 -1.338,-1.41" style="fill-rule:nonzero;"/><path d="M66.121,51.928l0.339,-0.018c0.517,-0.036 0.714,-0.089 0.714,-0.304l0,-4.836c0,-1.108 -0.143,-1.285 -0.75,-1.428l-0.41,-0.09l0.017,-0.215l2.928,-0.785l-0.035,1.447l0.035,0.017c0.732,-0.679 1.624,-1.481 2.784,-1.481c0.589,0 1.071,0.214 1.428,0.571c0.232,0.214 0.41,0.554 0.482,0.964l0.054,0.017c0.768,-0.785 1.695,-1.552 2.855,-1.552c0.589,0 1.054,0.178 1.428,0.553c0.429,0.428 0.608,1.161 0.608,2.088l0,4.748c0,0.125 0.017,0.214 0.838,0.286l0.268,0.018l0.053,0.285l-4.016,0l0.054,-0.285l0.357,-0.018c0.589,-0.036 0.66,-0.143 0.66,-0.304l0,-4.408c0,-1.286 -0.482,-1.732 -1.481,-1.732c-0.643,0 -1.339,0.321 -1.553,0.714c0.018,0.036 -0.018,0.411 -0.018,0.464l0,4.998c0,0.125 0.036,0.196 0.821,0.268l0.286,0.018l0.054,0.285l-3.981,0l0.053,-0.285l0.34,-0.018c0.571,-0.036 0.66,-0.143 0.66,-0.304l0,-4.408c0,-1.286 -0.499,-1.732 -1.481,-1.732c-0.643,0 -1.161,0.304 -1.588,0.608l0,5.568c0,0.16 0.106,0.215 0.802,0.268l0.339,0.018l0.036,0.285l-4.034,0l0.054,-0.285Z" style="fill-rule:nonzero;"/><path d="M80.505,51.928l0.322,-0.018c0.499,-0.036 0.696,-0.089 0.696,-0.304l0,-9.532c0,-0.535 -0.107,-0.677 -0.571,-0.802l-0.59,-0.214l0.019,-0.197l2.927,-0.786l0,5.624l0.036,0.017c0.803,-0.66 1.82,-1.481 2.998,-1.481c0.554,0 1.054,0.196 1.429,0.553c0.41,0.446 0.588,1.124 0.588,1.911l0,4.925c0,0.125 0.036,0.214 0.857,0.286l0.268,0.018l0.053,0.285l-4.034,0l0.054,-0.285l0.357,-0.018c0.589,-0.036 0.678,-0.143 0.678,-0.304l0,-4.426c0,-1.268 -0.553,-1.714 -1.553,-1.714c-0.731,0 -1.321,0.304 -1.731,0.643l0,5.533c0,0.16 0.09,0.215 0.802,0.268l0.34,0.018l0.054,0.285l-4.052,0l0.053,-0.285Z" style="fill-rule:nonzero;"/><path d="M90.427,51.928l0.34,-0.018c0.517,-0.036 0.714,-0.089 0.714,-0.304l0,-4.836c0,-1.108 -0.143,-1.285 -0.75,-1.428l-0.41,-0.09l0.017,-0.215l2.927,-0.785l-0.035,1.464l0.035,0c0.804,-0.66 1.839,-1.481 2.999,-1.481c0.571,0 1.071,0.178 1.428,0.553c0.428,0.428 0.589,1.124 0.589,1.928l0,4.908c0,0.125 0.053,0.214 0.875,0.286l0.267,0.018l0.054,0.285l-4.017,0l0.055,-0.285l0.339,-0.018c0.606,-0.036 0.66,-0.143 0.66,-0.304l0,-4.408c0,-1.286 -0.518,-1.732 -1.535,-1.732c-0.733,0 -1.322,0.304 -1.749,0.643l0,5.533c0,0.16 0.107,0.215 0.802,0.268l0.34,0.018l0.035,0.285l-4.033,0l0.053,-0.285Z" style="fill-rule:nonzero;"/><path d="M100.404,48.572c0,-2.444 1.749,-4.337 4.176,-4.337c1.553,0 2.731,0.696 2.731,1.714c0,0.606 -0.481,0.999 -1,0.999c-0.624,0 -1.07,-0.553 -0.999,-1.178c0,-0.392 0.268,-0.625 0.268,-0.732c-0.054,-0.214 -0.535,-0.464 -1,-0.464c-1.284,0 -2.284,1.285 -2.284,3.284c0,2.071 1.125,3.392 2.695,3.392c0.928,0 1.642,-0.339 2.249,-1.303l0.196,0.106c-0.75,1.536 -1.839,2.429 -3.39,2.429c-2.089,0 -3.642,-1.679 -3.642,-3.91" style="fill-rule:nonzero;"/><path d="M122.161,50.982l-0.053,0c-0.803,0.714 -1.802,1.481 -2.963,1.481c-0.571,0 -1.017,-0.196 -1.41,-0.571c-0.428,-0.428 -0.589,-1.089 -0.589,-1.927l0.036,-4.909c0,-0.161 -0.072,-0.196 -0.893,-0.267l-0.285,-0.036l-0.054,-0.268l3.017,0l-0.054,5.016c0,1.285 0.535,1.731 1.553,1.731c0.714,0 1.267,-0.303 1.677,-0.625l0,-5.229c0,-0.447 -0.142,-0.536 -0.856,-0.589l-0.339,-0.036l-0.054,-0.268l3.017,0l0,6.248c0,0.464 0.07,0.589 0.339,0.66l0.839,0.214l-0.018,0.196l-2.928,0.697l0.018,-1.518Z" style="fill:#a7a9ac;fill-rule:nonzero;"/><path d="M126.229,51.25c0,-0.606 0.535,-1.142 1.214,-1.142c0.678,0 1.178,0.536 1.178,1.142c0,0.643 -0.5,1.196 -1.178,1.196c-0.679,0 -1.214,-0.553 -1.214,-1.196" style="fill:#a7a9ac;fill-rule:nonzero;"/><path d="M136.777,48.679c0,-1.82 -0.892,-3.194 -2.267,-3.194c-0.731,0 -1.338,0.374 -1.749,0.839l0,4.194c0.464,0.875 1.249,1.57 2.071,1.57c1.177,0 1.945,-1.499 1.945,-3.409m-6.871,7.729l0.374,-0.018c0.5,-0.035 0.715,-0.089 0.715,-0.285l0,-9.353c0,-1.09 -0.144,-1.267 -0.75,-1.41l-0.393,-0.09l0.018,-0.214l2.909,-0.785l-0.035,1.571l0.071,0.017c0.714,-0.856 1.642,-1.516 2.713,-1.516c1.82,0 3.178,1.606 3.178,3.784c0,2.748 -2.072,4.354 -4.177,4.354c-0.697,0 -1.304,-0.124 -1.75,-0.321l-0.018,0l0,3.998c0,0.143 0.089,0.215 0.822,0.25l0.624,0.018l0.053,0.286l-4.408,0l0.054,-0.286Z" style="fill:#a7a9ac;fill-rule:nonzero;"/><path d="M146.325,48.573c0,-1.571 -0.321,-2.838 -0.928,-3.463c-0.286,-0.285 -0.678,-0.535 -1.267,-0.535c-1.393,0 -2.143,1.606 -2.143,3.516c0,1.606 0.287,2.838 0.911,3.48c0.303,0.321 0.714,0.554 1.285,0.554c1.321,0 2.142,-1.588 2.142,-3.552m-6.354,-0.196c0,-2.303 1.802,-4.142 4.248,-4.142c2.481,0 4.123,1.785 4.123,4.017c0,2.355 -1.767,4.212 -4.247,4.212c-2.5,0 -4.124,-1.821 -4.124,-4.087" style="fill:#a7a9ac;fill-rule:nonzero;"/><path d="M149.59,51.928l0.34,-0.018c0.517,-0.036 0.714,-0.089 0.714,-0.303l0,-4.837c0,-1.108 -0.143,-1.285 -0.75,-1.428l-0.41,-0.09l0.017,-0.214l2.928,-0.785l-0.036,2.659l0.053,0c0.607,-1.713 1.321,-2.677 2.392,-2.677c0.678,0 1.214,0.464 1.214,1.107c0,0.535 -0.393,1.053 -1.018,1.053c-0.552,0 -1.016,-0.375 -1.124,-0.999c-0.59,0.178 -1.071,0.909 -1.517,2.302l0,3.944c0,0.161 0.142,0.232 0.857,0.268l0.535,0.018l0.054,0.285l-4.302,0l0.053,-0.285Z" style="fill:#a7a9ac;fill-rule:nonzero;"/><path d="M157.961,50.25l0.089,-4.837l-1.428,-0.054l0.16,-0.446l1.125,-0.856l1.642,-1.322l0.267,0.054l-0.017,1.713l2.749,0l-0.25,0.84l-2.499,0l-0.107,4.64c-0.017,0.982 0.428,1.428 1.338,1.428c0.59,0 1.089,-0.214 1.482,-0.517l0.09,0.177c-0.732,0.768 -1.643,1.375 -2.607,1.375c-1.32,0 -2.053,-0.677 -2.034,-2.195" style="fill:#a7a9ac;fill-rule:nonzero;"/><path d="M169.918,48.573c0,-1.571 -0.321,-2.838 -0.928,-3.463c-0.286,-0.285 -0.678,-0.535 -1.267,-0.535c-1.393,0 -2.142,1.606 -2.142,3.516c0,1.606 0.286,2.838 0.91,3.48c0.304,0.321 0.714,0.554 1.285,0.554c1.321,0 2.142,-1.588 2.142,-3.552m-6.354,-0.196c0,-2.303 1.802,-4.142 4.249,-4.142c2.48,0 4.122,1.785 4.122,4.017c0,2.355 -1.767,4.212 -4.247,4.212c-2.5,0 -4.124,-1.821 -4.124,-4.087" style="fill:#a7a9ac;fill-rule:nonzero;"/><path d="M10.442,41.771l0,-31.328l41.771,0l0,-10.443l-52.213,0l0,52.213l52.213,0l0,-31.327l-31.329,0l0,10.443l20.886,0l0,10.442l-31.328,0Z" style="fill:#231f20;fill-rule:nonzero;"/></svg>