<?xml version="1.0" encoding="UTF-8" standalone="no"?><!DOCTYPE svg PUBLIC "-//W3C//DTD SVG 1.1//EN" "http://www.w3.org/Graphics/SVG/1.1/DTD/svg11.dtd"><svg width="100%" height="100%" viewBox="0 0 134 90" version="1.1" xmlns="http://www.w3.org/2000/svg" xmlns:xlink="http://www.w3.org/1999/xlink" xml:space="preserve" xmlns:serif="http://www.serif.com/" style="fill-rule:evenodd;clip-rule:evenodd;stroke-linejoin:round;stroke-miterlimit:2;"><path d="M3.686,54.106c0,-1.042 -0.305,-1.754 -1.042,-1.754c-0.61,0 -0.979,0.597 -0.979,1.614c0,1.08 0.381,1.728 0.979,1.728c0.661,0 1.042,-0.559 1.042,-1.588m1.004,5.058c0,-0.635 -0.432,-1.004 -1.499,-1.055c-0.369,-0.012 -0.929,0.013 -1.449,0.051c-0.369,0.153 -0.738,0.585 -0.738,1.106c0,0.8 0.776,1.347 1.856,1.347c1.08,0 1.83,-0.648 1.83,-1.449m-4.69,0.432c0,-0.724 0.776,-1.207 1.461,-1.474l0,-0.025c-0.75,-0.09 -1.283,-0.522 -1.283,-1.043c0,-0.635 0.687,-1.118 1.361,-1.296l0,-0.026c-0.624,-0.241 -1.145,-0.8 -1.145,-1.639c0,-1.093 0.966,-1.957 2.263,-1.957c0.597,0 1.105,0.178 1.511,0.432l1.666,-0.204l-0.088,0.712l-1.272,-0.19l-0.013,0.05c0.254,0.242 0.445,0.623 0.445,1.055c0,1.081 -0.979,1.919 -2.3,1.919c-0.268,0 -0.598,-0.037 -0.788,-0.076c-0.357,0.076 -0.661,0.305 -0.661,0.61c0,0.369 0.355,0.521 0.978,0.521c0.42,0 1.08,-0.038 1.538,-0.038c1.157,0 1.868,0.597 1.868,1.563c0,1.386 -1.346,2.454 -3.355,2.454c-1.385,0 -2.186,-0.496 -2.186,-1.348" style="fill-rule:nonzero;"/><path d="M9.544,56.711l0.076,-1.932c-1.512,0.356 -1.868,0.865 -1.868,1.474c0,0.547 0.394,0.916 0.826,0.916c0.356,0 0.649,-0.14 0.966,-0.458m0.038,0.242l-0.025,-0.013c-0.483,0.534 -1.004,1.004 -1.665,1.004c-0.75,0 -1.373,-0.572 -1.373,-1.296c0,-0.903 0.75,-1.525 3.101,-2.085l0.013,-0.33c0.025,-1.182 -0.47,-1.69 -1.258,-1.69c-0.445,0 -0.877,0.215 -0.877,0.33c0,0.089 0.343,0.356 0.343,0.712c0,0.317 -0.279,0.609 -0.687,0.609c-0.393,0 -0.685,-0.241 -0.685,-0.571c0,-0.737 1.575,-1.5 2.656,-1.5c1.334,0 1.856,0.508 1.779,2.148l-0.115,2.326c-0.024,0.432 0.141,0.635 0.407,0.635c0.203,0 0.382,-0.165 0.56,-0.33l0.114,0.114c-0.292,0.394 -0.775,0.941 -1.335,0.941c-0.547,0 -0.889,-0.344 -0.953,-1.004" style="fill-rule:nonzero;"/><path d="M12.365,57.601l0.241,-0.013c0.369,-0.025 0.484,-0.063 0.484,-0.216l0,-6.558c0,-0.61 -0.089,-0.712 -0.42,-0.801l-0.419,-0.152l0.025,-0.14l2.072,-0.559l0,8.236c0,0.114 0.088,0.152 0.572,0.19l0.216,0.013l0.038,0.204l-2.847,0l0.038,-0.204Z" style="fill-rule:nonzero;"/><path d="M19.661,54.017c0.012,-0.864 -0.268,-1.652 -0.966,-1.652c-0.648,0 -1.221,0.711 -1.36,1.665c0,0 2.338,-0.013 2.326,-0.013m-3.712,1.182c0,-1.741 1.233,-3.089 2.911,-3.089c1.322,0 2.097,0.789 2.097,1.818c0,0.114 -0.013,0.229 -0.038,0.356c0,0 -3.47,-0.038 -3.597,-0.038c-0.025,0.114 -0.038,0.368 -0.038,0.496c0.013,1.423 0.814,2.376 1.932,2.376c0.674,0 1.219,-0.241 1.652,-0.928l0.14,0.077c-0.535,1.093 -1.335,1.728 -2.453,1.728c-1.499,0 -2.606,-1.207 -2.606,-2.796" style="fill-rule:nonzero;"/><path d="M21.909,57.601l0.242,-0.013c0.368,-0.025 0.508,-0.063 0.508,-0.216l0,-3.444c0,-0.788 -0.102,-0.915 -0.534,-1.017l-0.292,-0.063l0.013,-0.153l2.084,-0.559l-0.025,1.894l0.038,0c0.432,-1.22 0.941,-1.907 1.703,-1.907c0.483,0 0.865,0.331 0.865,0.788c0,0.382 -0.281,0.75 -0.725,0.75c-0.394,0 -0.725,-0.267 -0.801,-0.711c-0.42,0.126 -0.763,0.648 -1.08,1.639l0,2.809c0,0.114 0.102,0.165 0.609,0.19l0.382,0.013l0.038,0.204l-3.063,0l0.038,-0.204Z" style="fill-rule:nonzero;"/><path d="M27.627,50.356c0,-0.381 0.267,-0.813 0.801,-0.813c0.546,0 0.813,0.432 0.813,0.813c0,0.369 -0.267,0.813 -0.813,0.813c-0.534,0 -0.801,-0.444 -0.801,-0.813m-0.471,7.245l0.242,-0.013c0.369,-0.025 0.508,-0.064 0.508,-0.216l0,-3.457c0,-0.775 -0.089,-0.902 -0.534,-1.004l-0.279,-0.064l0.013,-0.152l2.059,-0.559l0,5.262c0,0.114 0.076,0.152 0.598,0.19l0.203,0.013l0.038,0.203l-2.886,0l0.038,-0.203Z" style="fill-rule:nonzero;"/><path d="M33.868,56.711l0.076,-1.932c-1.513,0.356 -1.869,0.865 -1.869,1.474c0,0.547 0.395,0.916 0.827,0.916c0.356,0 0.648,-0.14 0.966,-0.458m0.037,0.242l-0.024,-0.013c-0.484,0.534 -1.005,1.004 -1.666,1.004c-0.749,0 -1.372,-0.572 -1.372,-1.296c0,-0.903 0.75,-1.525 3.101,-2.085l0.013,-0.33c0.025,-1.182 -0.471,-1.69 -1.259,-1.69c-0.444,0 -0.877,0.215 -0.877,0.33c0,0.089 0.344,0.356 0.344,0.712c0,0.317 -0.28,0.609 -0.687,0.609c-0.394,0 -0.686,-0.241 -0.686,-0.571c0,-0.737 1.576,-1.5 2.656,-1.5c1.335,0 1.856,0.508 1.779,2.148l-0.114,2.326c-0.025,0.432 0.14,0.635 0.406,0.635c0.204,0 0.382,-0.165 0.56,-0.33l0.114,0.114c-0.292,0.394 -0.774,0.941 -1.334,0.941c-0.547,0 -0.889,-0.344 -0.954,-1.004" style="fill-rule:nonzero;"/><path d="M43.577,56.597l0,-3.038c-0.318,-0.623 -0.89,-1.106 -1.462,-1.106c-0.89,0 -1.398,1.056 -1.398,2.403c0,1.309 0.635,2.313 1.627,2.313c0.534,0 0.915,-0.254 1.233,-0.572m0,0.318l-0.039,-0.013c-0.495,0.61 -1.156,1.068 -1.919,1.068c-1.283,0 -2.288,-1.144 -2.288,-2.72c0,-1.957 1.5,-3.064 3.013,-3.064c0.47,0 0.864,0.064 1.208,0.217c0,0 0.025,-0.013 0.025,0l0,-1.945c0,-0.368 -0.089,-0.495 -0.42,-0.559l-0.534,-0.139l0.025,-0.141l2.174,-0.457l0,7.715c0,0.343 0.064,0.419 0.241,0.47l0.611,0.14l-0.013,0.152l-2.084,0.369l0,-1.093Z" style="fill-rule:nonzero;"/><path d="M49.358,56.711l0.076,-1.932c-1.512,0.356 -1.868,0.865 -1.868,1.474c0,0.547 0.395,0.916 0.826,0.916c0.357,0 0.649,-0.14 0.966,-0.458m0.038,0.242l-0.025,-0.013c-0.483,0.534 -1.004,1.004 -1.664,1.004c-0.751,0 -1.373,-0.572 -1.373,-1.296c0,-0.903 0.749,-1.525 3.1,-2.085l0.013,-0.33c0.026,-1.182 -0.47,-1.69 -1.258,-1.69c-0.445,0 -0.877,0.215 -0.877,0.33c0,0.089 0.343,0.356 0.343,0.712c0,0.317 -0.279,0.609 -0.686,0.609c-0.394,0 -0.687,-0.241 -0.687,-0.571c0,-0.737 1.577,-1.5 2.657,-1.5c1.334,0 1.856,0.508 1.779,2.148l-0.114,2.326c-0.025,0.432 0.14,0.635 0.406,0.635c0.203,0 0.382,-0.165 0.56,-0.33l0.114,0.114c-0.292,0.394 -0.775,0.941 -1.335,0.941c-0.546,0 -0.889,-0.344 -0.953,-1.004" style="fill-rule:nonzero;"/><path d="M59.334,55.288c0,-1.296 -0.623,-2.275 -1.602,-2.275c-0.534,0 -0.966,0.267 -1.271,0.597l0,2.974c0.33,0.623 0.902,1.132 1.487,1.132c0.852,0 1.386,-1.068 1.386,-2.428m-4.118,-4.715c0,-0.369 -0.076,-0.471 -0.42,-0.572l-0.419,-0.153l0.013,-0.14l2.071,-0.559l0,4.105l0.051,0.013c0.521,-0.61 1.17,-1.081 1.932,-1.081c1.309,0 2.275,1.144 2.275,2.695c0,1.958 -1.5,3.101 -2.999,3.101c-0.534,0 -1.183,-0.177 -1.615,-0.355l-0.012,0l-0.763,0.444l-0.114,0l0,-7.498Z" style="fill-rule:nonzero;"/><path d="M62.078,50.356c0,-0.381 0.267,-0.813 0.801,-0.813c0.547,0 0.813,0.432 0.813,0.813c0,0.369 -0.266,0.813 -0.813,0.813c-0.534,0 -0.801,-0.444 -0.801,-0.813m-0.47,7.245l0.241,-0.013c0.369,-0.025 0.508,-0.064 0.508,-0.216l0,-3.457c0,-0.775 -0.089,-0.902 -0.533,-1.004l-0.28,-0.064l0.013,-0.152l2.059,-0.559l0,5.262c0,0.114 0.076,0.152 0.598,0.19l0.203,0.013l0.038,0.203l-2.885,0l0.038,-0.203Z" style="fill-rule:nonzero;"/><path d="M69.754,55.211c0,-1.119 -0.229,-2.021 -0.661,-2.466c-0.203,-0.203 -0.483,-0.381 -0.902,-0.381c-0.992,0 -1.526,1.144 -1.526,2.504c0,1.144 0.204,2.021 0.649,2.478c0.215,0.229 0.508,0.394 0.915,0.394c0.94,0 1.525,-1.131 1.525,-2.529m-4.524,-0.14c0,-1.639 1.283,-2.949 3.024,-2.949c1.767,0 2.937,1.271 2.937,2.86c0,1.678 -1.259,3 -3.026,3c-1.779,0 -2.935,-1.297 -2.935,-2.911" style="fill-rule:nonzero;"/><path d="M76.337,56.597l0,-3.038c-0.317,-0.623 -0.89,-1.106 -1.462,-1.106c-0.89,0 -1.397,1.056 -1.397,2.403c0,1.309 0.635,2.313 1.627,2.313c0.534,0 0.915,-0.254 1.232,-0.572m0,0.318l-0.038,-0.013c-0.495,0.61 -1.156,1.068 -1.919,1.068c-1.284,0 -2.288,-1.144 -2.288,-2.72c0,-1.957 1.5,-3.064 3.013,-3.064c0.469,0 0.864,0.064 1.207,0.217c0,0 0.025,-0.013 0.025,0l0,-1.945c0,-0.368 -0.089,-0.495 -0.419,-0.559l-0.534,-0.139l0.025,-0.141l2.174,-0.457l0,7.715c0,0.343 0.064,0.419 0.241,0.47l0.611,0.14l-0.013,0.152l-2.085,0.369l0,-1.093Z" style="fill-rule:nonzero;"/><path d="M79.489,50.356c0,-0.381 0.267,-0.813 0.801,-0.813c0.546,0 0.813,0.432 0.813,0.813c0,0.369 -0.267,0.813 -0.813,0.813c-0.534,0 -0.801,-0.444 -0.801,-0.813m-0.471,7.245l0.242,-0.013c0.369,-0.025 0.508,-0.064 0.508,-0.216l0,-3.457c0,-0.775 -0.089,-0.902 -0.534,-1.004l-0.279,-0.064l0.013,-0.152l2.059,-0.559l0,5.262c0,0.114 0.076,0.152 0.598,0.19l0.203,0.013l0.038,0.203l-2.886,0l0.038,-0.203Z" style="fill-rule:nonzero;"/><path d="M83.174,53.203c-0.229,-0.521 -0.293,-0.623 -0.674,-0.661l-0.254,-0.038l-0.039,-0.203l3,0l-0.025,0.203l-0.279,0.038c-0.42,0.026 -0.509,0.178 -0.344,0.572l1.322,3.305l0.966,-2.568c0.393,-1.042 0.292,-1.232 -0.42,-1.309l-0.241,-0.038l-0.038,-0.203l2.261,0l-0.037,0.203l-0.229,0.025c-0.521,0.064 -0.572,0.229 -1.042,1.399l-1.538,4.003l-0.419,0l-1.97,-4.728Z" style="fill-rule:nonzero;"/><path d="M92.666,54.017c0.013,-0.864 -0.267,-1.652 -0.966,-1.652c-0.648,0 -1.22,0.711 -1.359,1.665c0,0 2.338,-0.013 2.325,-0.013m-3.711,1.182c0,-1.741 1.233,-3.089 2.91,-3.089c1.322,0 2.098,0.789 2.098,1.818c0,0.114 -0.013,0.229 -0.038,0.356c0,0 -3.47,-0.038 -3.597,-0.038c-0.026,0.114 -0.038,0.368 -0.038,0.496c0.012,1.423 0.813,2.376 1.932,2.376c0.673,0 1.219,-0.241 1.652,-0.928l0.14,0.077c-0.535,1.093 -1.335,1.728 -2.453,1.728c-1.5,0 -2.606,-1.207 -2.606,-2.796" style="fill-rule:nonzero;"/><path d="M94.916,57.601l0.242,-0.013c0.368,-0.025 0.508,-0.063 0.508,-0.216l0,-3.444c0,-0.788 -0.102,-0.915 -0.533,-1.017l-0.293,-0.063l0.013,-0.153l2.084,-0.559l-0.025,1.894l0.038,0c0.432,-1.22 0.941,-1.907 1.703,-1.907c0.483,0 0.865,0.331 0.865,0.788c0,0.382 -0.281,0.75 -0.725,0.75c-0.394,0 -0.725,-0.267 -0.801,-0.711c-0.42,0.126 -0.763,0.648 -1.08,1.639l0,2.809c0,0.114 0.102,0.165 0.61,0.19l0.381,0.013l0.038,0.204l-3.062,0l0.037,-0.204Z" style="fill-rule:nonzero;"/><path d="M100.342,57.677l-0.09,-1.614l0.28,-0.013l0.292,0.737c0.331,0.585 0.776,0.953 1.386,0.953c0.661,0 1.144,-0.418 1.144,-1.016c0,-0.61 -0.598,-0.915 -1.36,-1.194c-0.851,-0.318 -1.627,-0.687 -1.627,-1.717c0,-0.99 0.814,-1.69 2.008,-1.69c0.484,0 0.903,0.089 1.221,0.216l0.457,-0.14l0.063,1.653l-0.253,0.012l-0.662,-1.182c-0.203,-0.152 -0.508,-0.317 -0.864,-0.317c-0.623,0 -0.978,0.368 -0.978,0.889c0,0.61 0.507,0.826 1.308,1.131c0.89,0.344 1.703,0.712 1.703,1.78c0,0.94 -0.774,1.817 -2.249,1.817c-0.699,0 -1.309,-0.127 -1.779,-0.305" style="fill-rule:nonzero;"/><path d="M105.806,50.356c0,-0.381 0.267,-0.813 0.801,-0.813c0.547,0 0.813,0.432 0.813,0.813c0,0.369 -0.266,0.813 -0.813,0.813c-0.534,0 -0.801,-0.444 -0.801,-0.813m-0.471,7.245l0.242,-0.013c0.369,-0.025 0.508,-0.064 0.508,-0.216l0,-3.457c0,-0.775 -0.089,-0.902 -0.533,-1.004l-0.28,-0.064l0.013,-0.152l2.059,-0.559l0,5.262c0,0.114 0.076,0.152 0.598,0.19l0.203,0.013l0.038,0.203l-2.885,0l0.037,-0.203Z" style="fill-rule:nonzero;"/><path d="M113.203,56.597l0,-3.038c-0.317,-0.623 -0.89,-1.106 -1.462,-1.106c-0.89,0 -1.397,1.056 -1.397,2.403c0,1.309 0.634,2.313 1.627,2.313c0.533,0 0.915,-0.254 1.232,-0.572m0,0.318l-0.038,-0.013c-0.496,0.61 -1.156,1.068 -1.919,1.068c-1.284,0 -2.288,-1.144 -2.288,-2.72c0,-1.957 1.5,-3.064 3.013,-3.064c0.469,0 0.863,0.064 1.207,0.217c0,0 0.025,-0.013 0.025,0l0,-1.945c0,-0.368 -0.089,-0.495 -0.419,-0.559l-0.534,-0.139l0.025,-0.141l2.173,-0.457l0,7.715c0,0.343 0.065,0.419 0.242,0.47l0.611,0.14l-0.013,0.152l-2.085,0.369l0,-1.093Z" style="fill-rule:nonzero;"/><path d="M118.985,56.711l0.076,-1.932c-1.513,0.356 -1.868,0.865 -1.868,1.474c0,0.547 0.394,0.916 0.826,0.916c0.356,0 0.648,-0.14 0.966,-0.458m0.038,0.242l-0.025,-0.013c-0.484,0.534 -1.004,1.004 -1.665,1.004c-0.75,0 -1.373,-0.572 -1.373,-1.296c0,-0.903 0.75,-1.525 3.101,-2.085l0.013,-0.33c0.025,-1.182 -0.471,-1.69 -1.258,-1.69c-0.445,0 -0.877,0.215 -0.877,0.33c0,0.089 0.343,0.356 0.343,0.712c0,0.317 -0.279,0.609 -0.687,0.609c-0.393,0 -0.686,-0.241 -0.686,-0.571c0,-0.737 1.576,-1.5 2.656,-1.5c1.335,0 1.856,0.508 1.779,2.148l-0.114,2.326c-0.025,0.432 0.14,0.635 0.407,0.635c0.203,0 0.381,-0.165 0.56,-0.33l0.113,0.114c-0.292,0.394 -0.774,0.941 -1.334,0.941c-0.547,0 -0.889,-0.344 -0.953,-1.004" style="fill-rule:nonzero;"/><path d="M126.088,56.597l0,-3.038c-0.317,-0.623 -0.89,-1.106 -1.462,-1.106c-0.89,0 -1.397,1.056 -1.397,2.403c0,1.309 0.635,2.313 1.627,2.313c0.534,0 0.915,-0.254 1.232,-0.572m0,0.318l-0.038,-0.013c-0.495,0.61 -1.156,1.068 -1.919,1.068c-1.284,0 -2.288,-1.144 -2.288,-2.72c0,-1.957 1.5,-3.064 3.013,-3.064c0.47,0 0.864,0.064 1.207,0.217c0,0 0.025,-0.013 0.025,0l0,-1.945c0,-0.368 -0.089,-0.495 -0.419,-0.559l-0.534,-0.139l0.025,-0.141l2.174,-0.457l0,7.715c0,0.343 0.064,0.419 0.241,0.47l0.611,0.14l-0.013,0.152l-2.085,0.369l0,-1.093Z" style="fill-rule:nonzero;"/><path d="M132.494,54.017c0.013,-0.864 -0.268,-1.652 -0.966,-1.652c-0.648,0 -1.221,0.711 -1.36,1.665c0,0 2.339,-0.013 2.326,-0.013m-3.712,1.182c0,-1.741 1.233,-3.089 2.911,-3.089c1.322,0 2.097,0.789 2.097,1.818c0,0.114 -0.013,0.229 -0.038,0.356c0,0 -3.47,-0.038 -3.597,-0.038c-0.025,0.114 -0.038,0.368 -0.038,0.496c0.013,1.423 0.814,2.376 1.932,2.376c0.674,0 1.22,-0.241 1.652,-0.928l0.14,0.077c-0.534,1.093 -1.334,1.728 -2.452,1.728c-1.5,0 -2.607,-1.207 -2.607,-2.796" style="fill-rule:nonzero;"/><path d="M16.788,70c0,-1.741 1.246,-3.089 2.974,-3.089c1.106,0 1.945,0.496 1.945,1.22c0,0.433 -0.344,0.712 -0.712,0.712c-0.444,0 -0.763,-0.394 -0.712,-0.838c0,-0.28 0.191,-0.445 0.191,-0.522c-0.039,-0.152 -0.381,-0.33 -0.712,-0.33c-0.914,0 -1.626,0.915 -1.626,2.338c0,1.475 0.8,2.415 1.919,2.415c0.661,0 1.169,-0.241 1.601,-0.927l0.14,0.076c-0.534,1.093 -1.31,1.728 -2.415,1.728c-1.487,0 -2.593,-1.195 -2.593,-2.783" style="fill-rule:nonzero;"/><path d="M26.268,68.805c0.013,-0.864 -0.267,-1.652 -0.966,-1.652c-0.648,0 -1.22,0.711 -1.359,1.665c0,0 2.338,-0.013 2.325,-0.013m-3.711,1.182c0,-1.741 1.233,-3.089 2.91,-3.089c1.322,0 2.098,0.789 2.098,1.818c0,0.114 -0.013,0.229 -0.038,0.356c0,0 -3.471,-0.038 -3.597,-0.038c-0.026,0.114 -0.039,0.368 -0.039,0.496c0.013,1.423 0.814,2.376 1.933,2.376c0.673,0 1.219,-0.241 1.652,-0.928l0.14,0.077c-0.535,1.093 -1.335,1.728 -2.453,1.728c-1.5,0 -2.606,-1.207 -2.606,-2.796" style="fill-rule:nonzero;"/><path d="M28.517,72.389l0.241,-0.013c0.369,-0.025 0.509,-0.063 0.509,-0.216l0,-3.444c0,-0.788 -0.102,-0.915 -0.534,-1.017l-0.292,-0.063l0.013,-0.153l2.084,-0.559l-0.026,1.042l0.026,0c0.572,-0.47 1.309,-1.055 2.135,-1.055c0.406,0 0.763,0.127 1.017,0.394c0.305,0.306 0.42,0.801 0.42,1.373l0,3.495c0,0.089 0.037,0.153 0.622,0.203l0.191,0.013l0.037,0.204l-2.859,0l0.038,-0.204l0.241,-0.013c0.433,-0.025 0.471,-0.101 0.471,-0.216l0,-3.139c0,-0.915 -0.368,-1.233 -1.093,-1.233c-0.521,0 -0.94,0.217 -1.246,0.458l0,3.94c0,0.114 0.076,0.152 0.572,0.19l0.242,0.013l0.025,0.204l-2.872,0l0.038,-0.204Z" style="fill-rule:nonzero;"/><path d="M36.32,71.195l0.063,-3.444l-1.016,-0.039l0.114,-0.317l0.801,-0.61l1.169,-0.941l0.19,0.038l-0.012,1.22l1.958,0l-0.179,0.597l-1.779,0l-0.077,3.305c-0.012,0.699 0.305,1.017 0.954,1.017c0.419,0 0.775,-0.152 1.054,-0.369l0.065,0.127c-0.522,0.547 -1.17,0.979 -1.856,0.979c-0.941,0 -1.462,-0.482 -1.449,-1.563" style="fill-rule:nonzero;"/><path d="M40.297,72.389l0.241,-0.013c0.369,-0.025 0.509,-0.063 0.509,-0.216l0,-3.444c0,-0.788 -0.102,-0.915 -0.534,-1.017l-0.292,-0.063l0.013,-0.153l2.084,-0.559l-0.026,1.894l0.038,0c0.433,-1.22 0.941,-1.907 1.703,-1.907c0.484,0 0.865,0.331 0.865,0.788c0,0.382 -0.28,0.75 -0.725,0.75c-0.394,0 -0.724,-0.267 -0.801,-0.711c-0.419,0.126 -0.762,0.648 -1.08,1.639l0,2.809c0,0.114 0.102,0.165 0.61,0.19l0.381,0.013l0.039,0.204l-3.063,0l0.038,-0.204Z" style="fill-rule:nonzero;"/><path d="M50.082,70c0,-1.119 -0.229,-2.021 -0.661,-2.466c-0.203,-0.203 -0.483,-0.381 -0.902,-0.381c-0.992,0 -1.525,1.144 -1.525,2.504c0,1.144 0.203,2.021 0.648,2.478c0.216,0.229 0.508,0.394 0.916,0.394c0.939,0 1.524,-1.131 1.524,-2.529m-4.524,-0.14c0,-1.639 1.283,-2.949 3.025,-2.949c1.767,0 2.936,1.271 2.936,2.86c0,1.678 -1.258,3 -3.025,3c-1.78,0 -2.936,-1.296 -2.936,-2.911" style="fill-rule:nonzero;"/><path d="M55.026,70c0,-1.741 1.245,-3.089 2.974,-3.089c1.106,0 1.945,0.496 1.945,1.22c0,0.433 -0.344,0.712 -0.712,0.712c-0.445,0 -0.763,-0.394 -0.712,-0.838c0,-0.28 0.191,-0.445 0.191,-0.522c-0.039,-0.152 -0.381,-0.33 -0.712,-0.33c-0.915,0 -1.627,0.915 -1.627,2.338c0,1.475 0.8,2.415 1.92,2.415c0.66,0 1.169,-0.241 1.601,-0.927l0.14,0.076c-0.534,1.093 -1.31,1.728 -2.415,1.728c-1.488,0 -2.593,-1.195 -2.593,-2.783" style="fill-rule:nonzero;"/><path d="M61.252,65.145c0,-0.381 0.268,-0.813 0.801,-0.813c0.547,0 0.813,0.432 0.813,0.813c0,0.369 -0.266,0.813 -0.813,0.813c-0.533,0 -0.801,-0.444 -0.801,-0.813m-0.47,7.245l0.241,-0.013c0.369,-0.025 0.508,-0.064 0.508,-0.216l0,-3.457c0,-0.775 -0.088,-0.902 -0.533,-1.004l-0.279,-0.064l0.012,-0.152l2.059,-0.559l0,5.262c0,0.114 0.076,0.152 0.598,0.19l0.203,0.013l0.038,0.203l-2.885,0l0.038,-0.203Z" style="fill-rule:nonzero;"/><path d="M68.116,68.805c0.013,-0.864 -0.268,-1.652 -0.966,-1.652c-0.648,0 -1.221,0.711 -1.36,1.665c0,0 2.339,-0.013 2.326,-0.013m-1.118,-4.918l0.216,0l1.715,2.478l-0.178,0l-1.627,-1.322l-0.026,0l-1.651,1.322l-0.166,0l1.717,-2.478Zm-2.594,6.1c0,-1.741 1.233,-3.089 2.911,-3.089c1.322,0 2.097,0.789 2.097,1.818c0,0.114 -0.013,0.229 -0.038,0.356c0,0 -3.47,-0.038 -3.597,-0.038c-0.025,0.114 -0.038,0.368 -0.038,0.496c0.013,1.423 0.814,2.376 1.932,2.376c0.674,0 1.219,-0.241 1.652,-0.928l0.14,0.077c-0.534,1.093 -1.334,1.728 -2.453,1.728c-1.499,0 -2.606,-1.207 -2.606,-2.796" style="fill-rule:nonzero;"/><path d="M70.364,72.389l0.242,-0.013c0.368,-0.025 0.508,-0.063 0.508,-0.216l0,-3.444c0,-0.788 -0.102,-0.915 -0.534,-1.017l-0.292,-0.063l0.013,-0.153l2.084,-0.559l-0.025,1.042l0.025,0c0.572,-0.47 1.309,-1.055 2.135,-1.055c0.407,0 0.763,0.127 1.017,0.394c0.306,0.306 0.42,0.801 0.42,1.373l0,3.495c0,0.089 0.038,0.153 0.623,0.203l0.19,0.013l0.038,0.204l-2.859,0l0.038,-0.204l0.241,-0.013c0.433,-0.025 0.47,-0.101 0.47,-0.216l0,-3.139c0,-0.915 -0.368,-1.233 -1.093,-1.233c-0.521,0 -0.94,0.217 -1.245,0.458l0,3.94c0,0.114 0.076,0.152 0.571,0.19l0.243,0.013l0.025,0.204l-2.872,0l0.037,-0.204Z" style="fill-rule:nonzero;"/><path d="M77.467,70c0,-1.741 1.246,-3.089 2.975,-3.089c1.105,0 1.944,0.496 1.944,1.22c0,0.433 -0.343,0.712 -0.712,0.712c-0.444,0 -0.763,-0.394 -0.711,-0.838c0,-0.28 0.191,-0.445 0.191,-0.522c-0.039,-0.152 -0.382,-0.33 -0.712,-0.33c-0.915,0 -1.627,0.915 -1.627,2.338c0,1.475 0.8,2.415 1.919,2.415c0.661,0 1.17,-0.241 1.601,-0.927l0.14,0.076c-0.533,1.093 -1.309,1.728 -2.414,1.728c-1.488,0 -2.594,-1.195 -2.594,-2.783" style="fill-rule:nonzero;"/><path d="M83.695,65.145c0,-0.381 0.267,-0.813 0.801,-0.813c0.546,0 0.813,0.432 0.813,0.813c0,0.369 -0.267,0.813 -0.813,0.813c-0.534,0 -0.801,-0.444 -0.801,-0.813m-0.471,7.245l0.242,-0.013c0.369,-0.025 0.508,-0.064 0.508,-0.216l0,-3.457c0,-0.775 -0.089,-0.902 -0.534,-1.004l-0.279,-0.064l0.013,-0.152l2.059,-0.559l0,5.262c0,0.114 0.076,0.152 0.598,0.19l0.203,0.013l0.038,0.203l-2.886,0l0.038,-0.203Z" style="fill-rule:nonzero;"/><path d="M89.935,71.5l0.076,-1.932c-1.513,0.356 -1.869,0.865 -1.869,1.474c0,0.547 0.395,0.916 0.827,0.916c0.356,0 0.648,-0.14 0.966,-0.458m0.037,0.242l-0.024,-0.013c-0.484,0.534 -1.005,1.004 -1.666,1.004c-0.749,0 -1.372,-0.572 -1.372,-1.296c0,-0.903 0.75,-1.525 3.101,-2.085l0.013,-0.33c0.025,-1.182 -0.471,-1.69 -1.259,-1.69c-0.444,0 -0.877,0.215 -0.877,0.33c0,0.089 0.344,0.356 0.344,0.712c0,0.317 -0.28,0.609 -0.687,0.609c-0.394,0 -0.686,-0.241 -0.686,-0.571c0,-0.737 1.576,-1.5 2.656,-1.5c1.334,0 1.856,0.508 1.779,2.148l-0.114,2.326c-0.025,0.432 0.14,0.635 0.406,0.635c0.204,0 0.382,-0.165 0.56,-0.33l0.114,0.114c-0.292,0.394 -0.775,0.941 -1.334,0.941c-0.547,0 -0.889,-0.344 -0.954,-1.004" style="fill-rule:nonzero;"/><path d="M95.932,67.992c-0.229,-0.521 -0.292,-0.623 -0.674,-0.661l-0.254,-0.038l-0.038,-0.203l2.999,0l-0.024,0.203l-0.28,0.038c-0.419,0.026 -0.508,0.178 -0.343,0.572l1.321,3.305l0.966,-2.568c0.394,-1.042 0.293,-1.232 -0.419,-1.309l-0.241,-0.038l-0.038,-0.203l2.261,0l-0.038,0.203l-0.228,0.025c-0.522,0.064 -0.573,0.229 -1.042,1.399l-1.538,4.003l-0.42,0l-1.97,-4.728Z" style="fill-rule:nonzero;"/><path d="M102.171,65.145c0,-0.381 0.268,-0.813 0.801,-0.813c0.547,0 0.813,0.432 0.813,0.813c0,0.369 -0.266,0.813 -0.813,0.813c-0.533,0 -0.801,-0.444 -0.801,-0.813m-0.47,7.245l0.241,-0.013c0.37,-0.025 0.509,-0.064 0.509,-0.216l0,-3.457c0,-0.775 -0.089,-0.902 -0.534,-1.004l-0.279,-0.064l0.012,-0.152l2.059,-0.559l0,5.262c0,0.114 0.076,0.152 0.598,0.19l0.203,0.013l0.038,0.203l-2.885,0l0.038,-0.203Z" style="fill-rule:nonzero;"/><path d="M105.857,67.992c-0.229,-0.521 -0.292,-0.623 -0.674,-0.661l-0.254,-0.038l-0.038,-0.203l3,0l-0.025,0.203l-0.28,0.038c-0.419,0.026 -0.508,0.178 -0.343,0.572l1.321,3.305l0.966,-2.568c0.394,-1.042 0.293,-1.232 -0.419,-1.309l-0.241,-0.038l-0.038,-0.203l2.261,0l-0.038,0.203l-0.228,0.025c-0.521,0.064 -0.573,0.229 -1.042,1.399l-1.538,4.003l-0.42,0l-1.97,-4.728Z" style="fill-rule:nonzero;"/><path d="M114.728,71.5l0.076,-1.932c-1.513,0.356 -1.869,0.865 -1.869,1.474c0,0.547 0.395,0.916 0.827,0.916c0.356,0 0.648,-0.14 0.966,-0.458m0.037,0.242l-0.024,-0.013c-0.484,0.534 -1.005,1.004 -1.665,1.004c-0.75,0 -1.373,-0.572 -1.373,-1.296c0,-0.903 0.75,-1.525 3.101,-2.085l0.013,-0.33c0.025,-1.182 -0.471,-1.69 -1.259,-1.69c-0.444,0 -0.877,0.215 -0.877,0.33c0,0.089 0.344,0.356 0.344,0.712c0,0.317 -0.28,0.609 -0.687,0.609c-0.394,0 -0.686,-0.241 -0.686,-0.571c0,-0.737 1.576,-1.5 2.656,-1.5c1.335,0 1.856,0.508 1.779,2.148l-0.114,2.326c-0.025,0.432 0.14,0.635 0.406,0.635c0.204,0 0.382,-0.165 0.56,-0.33l0.114,0.114c-0.292,0.394 -0.774,0.941 -1.334,0.941c-0.547,0 -0.889,-0.344 -0.954,-1.004" style="fill-rule:nonzero;"/><path d="M29.285,85.827l0.242,-0.013c0.368,-0.025 0.508,-0.063 0.508,-0.216l0,-3.444c0,-0.788 -0.102,-0.915 -0.534,-1.017l-0.292,-0.063l0.013,-0.153l2.084,-0.559l-0.025,1.029l0.025,0.013c0.521,-0.483 1.157,-1.055 1.983,-1.055c0.419,0 0.763,0.152 1.017,0.407c0.165,0.152 0.291,0.394 0.342,0.686l0.039,0.013c0.546,-0.559 1.207,-1.106 2.034,-1.106c0.418,0 0.75,0.127 1.016,0.394c0.305,0.305 0.433,0.826 0.433,1.487l0,3.381c0,0.089 0.011,0.153 0.596,0.203l0.192,0.013l0.037,0.204l-2.859,0l0.038,-0.204l0.255,-0.013c0.418,-0.025 0.469,-0.101 0.469,-0.216l0,-3.139c0,-0.915 -0.342,-1.233 -1.054,-1.233c-0.458,0 -0.954,0.229 -1.106,0.508c0.013,0.026 -0.014,0.293 -0.014,0.331l0,3.559c0,0.089 0.027,0.14 0.585,0.19l0.205,0.013l0.038,0.204l-2.835,0l0.038,-0.204l0.242,-0.013c0.406,-0.025 0.47,-0.101 0.47,-0.216l0,-3.139c0,-0.915 -0.356,-1.233 -1.055,-1.233c-0.457,0 -0.826,0.216 -1.131,0.432l0,3.966c0,0.114 0.076,0.152 0.571,0.19l0.243,0.013l0.025,0.204l-2.873,0l0.038,-0.204Z" style="fill:#ea072a;fill-rule:nonzero;"/><path d="M39.528,85.827l0.229,-0.013c0.356,-0.025 0.496,-0.063 0.496,-0.216l0,-6.787c0,-0.381 -0.077,-0.483 -0.408,-0.571l-0.419,-0.153l0.013,-0.14l2.084,-0.559l0,4.003l0.026,0.013c0.572,-0.47 1.296,-1.055 2.135,-1.055c0.394,0 0.75,0.14 1.017,0.394c0.292,0.318 0.42,0.801 0.42,1.36l0,3.508c0,0.089 0.024,0.153 0.609,0.203l0.192,0.013l0.037,0.204l-2.872,0l0.038,-0.204l0.254,-0.013c0.42,-0.025 0.483,-0.101 0.483,-0.216l0,-3.152c0,-0.902 -0.394,-1.22 -1.105,-1.22c-0.522,0 -0.941,0.216 -1.234,0.458l0,3.94c0,0.114 0.064,0.152 0.572,0.19l0.242,0.013l0.038,0.204l-2.885,0l0.038,-0.204Z" style="fill:#ea072a;fill-rule:nonzero;"/><path d="M46.593,85.827l0.242,-0.013c0.368,-0.025 0.508,-0.063 0.508,-0.216l0,-3.444c0,-0.788 -0.102,-0.915 -0.534,-1.017l-0.292,-0.063l0.013,-0.153l2.084,-0.559l-0.025,1.042l0.025,0c0.572,-0.47 1.309,-1.055 2.135,-1.055c0.406,0 0.763,0.127 1.017,0.394c0.306,0.305 0.42,0.801 0.42,1.373l0,3.495c0,0.089 0.038,0.153 0.622,0.203l0.191,0.013l0.038,0.204l-2.86,0l0.039,-0.204l0.241,-0.013c0.432,-0.025 0.47,-0.101 0.47,-0.216l0,-3.139c0,-0.915 -0.368,-1.233 -1.093,-1.233c-0.521,0 -0.94,0.216 -1.245,0.458l0,3.94c0,0.114 0.076,0.152 0.571,0.19l0.243,0.013l0.024,0.204l-2.872,0l0.038,-0.204Z" style="fill:#ea072a;fill-rule:nonzero;"/><path d="M53.697,83.437c0,-1.741 1.246,-3.088 2.975,-3.088c1.105,0 1.944,0.495 1.944,1.22c0,0.432 -0.343,0.711 -0.712,0.711c-0.444,0 -0.763,-0.393 -0.712,-0.838c0,-0.28 0.192,-0.445 0.192,-0.522c-0.04,-0.152 -0.382,-0.33 -0.712,-0.33c-0.915,0 -1.627,0.915 -1.627,2.339c0,1.474 0.8,2.415 1.919,2.415c0.661,0 1.17,-0.242 1.601,-0.928l0.14,0.076c-0.534,1.093 -1.309,1.729 -2.415,1.729c-1.487,0 -2.593,-1.195 -2.593,-2.784" style="fill:#ea072a;fill-rule:nonzero;"/><path d="M69.19,85.153l-0.038,0c-0.572,0.508 -1.283,1.055 -2.109,1.055c-0.408,0 -0.725,-0.14 -1.005,-0.407c-0.305,-0.305 -0.419,-0.775 -0.419,-1.372l0.025,-3.496c0,-0.114 -0.051,-0.139 -0.636,-0.191l-0.203,-0.025l-0.038,-0.19l2.148,0l-0.038,3.571c0,0.915 0.381,1.233 1.105,1.233c0.509,0 0.903,-0.216 1.195,-0.445l0,-3.724c0,-0.318 -0.101,-0.381 -0.61,-0.42l-0.241,-0.025l-0.038,-0.19l2.148,0l0,4.448c0,0.331 0.05,0.42 0.241,0.47l0.597,0.153l-0.013,0.139l-2.084,0.496l0.013,-1.08Z" style="fill:#a7a9ac;fill-rule:nonzero;"/><path d="M72.086,85.344c0,-0.432 0.382,-0.813 0.864,-0.813c0.484,0 0.839,0.381 0.839,0.813c0,0.458 -0.355,0.852 -0.839,0.852c-0.482,0 -0.864,-0.394 -0.864,-0.852" style="fill:#a7a9ac;fill-rule:nonzero;"/><path d="M79.597,83.514c0,-1.296 -0.635,-2.275 -1.613,-2.275c-0.522,0 -0.954,0.267 -1.246,0.597l0,2.987c0.331,0.623 0.889,1.119 1.474,1.119c0.839,0 1.385,-1.068 1.385,-2.428m-4.893,5.503l0.267,-0.012c0.356,-0.026 0.509,-0.064 0.509,-0.204l0,-6.66c0,-0.775 -0.102,-0.902 -0.534,-1.004l-0.28,-0.063l0.013,-0.153l2.071,-0.559l-0.025,1.118l0.051,0.013c0.508,-0.61 1.17,-1.08 1.931,-1.08c1.297,0 2.263,1.143 2.263,2.694c0,1.958 -1.474,3.101 -2.974,3.101c-0.496,0 -0.927,-0.089 -1.246,-0.229l-0.012,0l0,2.847c0,0.103 0.063,0.153 0.585,0.179l0.444,0.012l0.039,0.204l-3.14,0l0.038,-0.204Z" style="fill:#a7a9ac;fill-rule:nonzero;"/><path d="M86.396,83.438c0,-1.119 -0.229,-2.021 -0.66,-2.466c-0.204,-0.203 -0.484,-0.381 -0.902,-0.381c-0.993,0 -1.526,1.144 -1.526,2.504c0,1.144 0.203,2.021 0.649,2.478c0.215,0.229 0.507,0.394 0.915,0.394c0.94,0 1.524,-1.131 1.524,-2.529m-4.524,-0.14c0,-1.639 1.284,-2.949 3.025,-2.949c1.767,0 2.936,1.271 2.936,2.86c0,1.678 -1.258,3 -3.025,3c-1.78,0 -2.936,-1.296 -2.936,-2.911" style="fill:#a7a9ac;fill-rule:nonzero;"/><path d="M88.721,85.827l0.242,-0.013c0.368,-0.025 0.508,-0.063 0.508,-0.216l0,-3.444c0,-0.788 -0.102,-0.915 -0.534,-1.017l-0.292,-0.063l0.013,-0.153l2.084,-0.559l-0.025,1.894l0.037,0c0.433,-1.22 0.942,-1.907 1.703,-1.907c0.484,0 0.866,0.331 0.866,0.788c0,0.382 -0.281,0.75 -0.725,0.75c-0.395,0 -0.725,-0.267 -0.801,-0.711c-0.42,0.126 -0.763,0.648 -1.08,1.639l0,2.809c0,0.114 0.102,0.165 0.609,0.19l0.382,0.013l0.038,0.204l-3.063,0l0.038,-0.204Z" style="fill:#a7a9ac;fill-rule:nonzero;"/><path d="M94.682,84.632l0.063,-3.444l-1.016,-0.039l0.113,-0.317l0.801,-0.61l1.17,-0.941l0.19,0.038l-0.012,1.22l1.957,0l-0.178,0.597l-1.779,0l-0.077,3.305c-0.012,0.699 0.305,1.017 0.954,1.017c0.418,0 0.775,-0.152 1.054,-0.369l0.064,0.127c-0.521,0.547 -1.169,0.979 -1.856,0.979c-0.94,0 -1.462,-0.482 -1.448,-1.563" style="fill:#a7a9ac;fill-rule:nonzero;"/><path d="M103.196,83.438c0,-1.119 -0.229,-2.021 -0.66,-2.466c-0.204,-0.203 -0.484,-0.381 -0.902,-0.381c-0.993,0 -1.526,1.144 -1.526,2.504c0,1.144 0.203,2.021 0.649,2.478c0.215,0.229 0.507,0.394 0.915,0.394c0.94,0 1.524,-1.131 1.524,-2.529m-4.524,-0.14c0,-1.639 1.284,-2.949 3.025,-2.949c1.767,0 2.936,1.271 2.936,2.86c0,1.678 -1.258,3 -3.025,3c-1.78,0 -2.936,-1.296 -2.936,-2.911" style="fill:#a7a9ac;fill-rule:nonzero;"/><path d="M56.333,28.233l0,-21.174l28.232,0l0,-7.059l-35.291,0l0,35.291l35.291,0l0,-21.174l-21.174,0l0,7.058l14.116,0l0,7.058l-21.174,0Z" style="fill:#ea072a;fill-rule:nonzero;"/></svg>